<svg viewBox="160 160 192 192" xmlns="http://www.w3.org/2000/svg" stroke="#1d4c6d" fill="none" stroke-linecap="round" stroke-linejoin="round" stroke-miterlimit="10" stroke-width="10">
    <g>
        <circle cx="256" cy="256" r="91.3"/>
        <path d="M315.6,186.9c-16,13.8-36.8,22.2-59.6,22.2c-22.8,0-43.6-8.3-59.6-22.1"/>
        <path d="M196.4,325.1c16-13.8,36.8-22.2,59.6-22.2c22.8,0,43.6,8.4,59.6,22.2"/>
        <path d="M256,164.7c-23,18.2-38.5,52.3-38.5,91.3c0,39,15.5,73.1,38.5,91.3c23-18.2,38.5-52.3,38.5-91.3C294.5,217,279,182.9,256,164.7z"/>
        <line x1="164.7" x2="347.3" y1="256" y2="256"/>
    </g>
</svg>
